<?xml version="1.0" standalone="no"?>
<!DOCTYPE svg PUBLIC "-//W3C//DTD SVG 20010904//EN"
 "http://www.w3.org/TR/2001/REC-SVG-20010904/DTD/svg10.dtd">
<svg version="1.0" xmlns="http://www.w3.org/2000/svg"
 width="300.000000pt" height="75.000000pt" viewBox="0 0 300.000000 75.000000"
 preserveAspectRatio="xMidYMid meet">
<metadata>
Created by potrace 1.10, written by Peter Selinger 2001-2011
</metadata>
<g transform="translate(0.000000,75.000000) scale(0.100000,-0.100000)"
fill="#000000" stroke="none">
<path d="M330 549 c0 -19 4 -21 40 -16 l40 5 0 -69 c0 -65 1 -69 23 -69 21 0
22 4 22 67 l0 68 38 -3 c32 -3 37 -1 37 17 0 20 -5 21 -100 21 -95 0 -100 -1
-100 -21z"/>
<path d="M1931 551 c-16 -29 -14 -126 3 -140 9 -8 43 -11 93 -9 l78 3 3 33 c3
26 0 32 -17 32 -11 0 -21 -7 -23 -16 -2 -12 -16 -17 -50 -18 l-48 -2 0 51 0
50 47 -1 c36 -1 49 -6 51 -18 7 -32 45 -9 40 25 -3 23 -7 24 -85 27 -73 2 -83
1 -92 -17z"/>
<path d="M560 470 c0 -67 1 -70 23 -70 20 0 23 4 19 30 -4 30 -4 30 47 30 50
0 51 -1 51 -30 0 -23 4 -30 20 -30 18 0 20 7 20 70 0 63 -2 70 -20 70 -15 0
-20 -7 -20 -25 0 -23 -3 -25 -51 -25 -49 0 -51 1 -47 25 4 21 1 25 -18 25 -23
0 -24 -3 -24 -70z"/>
<path d="M800 470 l0 -71 88 3 87 3 0 65 0 65 -87 3 -88 3 0 -71z m140 0 l0
-40 -55 0 -55 0 0 40 0 40 55 0 55 0 0 -40z"/>
<path d="M1032 473 l3 -68 80 0 80 0 3 68 c3 62 1 67 -18 67 -18 0 -20 -6 -20
-55 l0 -55 -45 0 -45 0 0 55 c0 49 -2 55 -20 55 -19 0 -21 -5 -18 -67z"/>
<path d="M1260 470 l0 -71 83 3 82 3 3 38 3 37 -45 0 c-36 0 -46 -4 -46 -16 0
-12 6 -15 25 -10 18 5 25 2 25 -9 0 -11 -12 -15 -49 -15 l-50 0 1 41 0 42 70
-6 c62 -5 69 -4 66 11 -3 14 -17 18 -86 20 l-82 3 0 -71z"/>
<path d="M1485 470 c0 -66 1 -70 23 -70 18 0 22 6 22 30 0 29 2 30 45 30 43 0
45 -1 45 -30 0 -24 4 -30 23 -30 21 0 22 3 19 70 -3 63 -6 70 -24 70 -16 0
-19 -5 -16 -25 5 -24 3 -25 -47 -25 -50 0 -52 1 -47 25 4 21 1 25 -19 25 -23
0 -24 -3 -24 -70z"/>
<path d="M1700 525 c0 -10 11 -15 35 -15 l35 0 0 -55 c0 -48 2 -55 20 -55 18
0 20 7 20 55 l0 55 35 0 c24 0 35 5 35 15 0 12 -17 15 -90 15 -73 0 -90 -3
-90 -15z"/>
<path d="M2180 470 c0 -63 2 -70 20 -70 16 0 20 7 20 30 0 29 1 30 51 30 l52
0 -6 -30 c-6 -26 -4 -30 16 -30 21 0 22 4 22 70 0 66 -1 70 -23 70 -19 0 -21
-4 -16 -25 6 -24 5 -25 -45 -25 -48 0 -51 2 -51 25 0 18 -5 25 -20 25 -18 0
-20 -7 -20 -70z"/>
<path d="M2410 470 c0 -66 1 -70 23 -70 21 0 22 4 22 70 0 66 -1 70 -22 70
-22 0 -23 -4 -23 -70z"/>
<path d="M2510 470 c0 -63 2 -70 20 -70 15 0 20 7 20 25 0 22 4 24 58 27 l57
3 0 40 0 40 -77 3 -78 3 0 -71z m125 25 c0 -5 -19 -11 -42 -13 -34 -3 -43 0
-43 13 0 13 9 16 43 13 23 -2 42 -7 42 -13z"/>
<path d="M354 307 c-3 -8 -4 -34 -2 -58 l3 -44 60 0 c55 0 60 2 63 23 4 23
-23 33 -30 11 -2 -7 -18 -13 -36 -14 -30 -3 -32 -1 -32 31 0 32 2 34 35 34 19
0 35 -4 35 -10 0 -5 7 -10 16 -10 10 0 14 7 12 23 -3 19 -10 22 -61 25 -43 2
-59 -1 -63 -11z"/>
<path d="M1760 260 c0 -47 3 -60 15 -60 11 0 15 11 15 36 l0 36 42 -36 c59
-51 68 -48 68 24 0 47 -3 60 -15 60 -10 0 -15 -11 -15 -35 0 -19 -4 -35 -8
-35 -4 0 -23 16 -42 35 -49 51 -60 46 -60 -25z"/>
<path d="M524 286 c-3 -8 -4 -29 -2 -48 l3 -33 60 0 60 0 0 45 0 45 -58 3
c-43 2 -59 -1 -63 -12z m96 -36 c0 -28 -3 -30 -35 -30 -32 0 -35 2 -35 30 0
28 3 30 35 30 32 0 35 -2 35 -30z"/>
<path d="M680 250 c0 -38 4 -50 15 -50 10 0 15 10 15 31 l0 31 35 -31 c50 -43
60 -40 60 19 0 34 -4 50 -12 50 -8 0 -13 -13 -13 -31 l0 -31 -39 31 c-21 17
-44 31 -50 31 -7 0 -11 -20 -11 -50z"/>
<path d="M844 285 c-12 -30 4 -45 46 -45 23 0 40 -5 40 -11 0 -8 -14 -10 -45
-6 -36 5 -45 4 -45 -8 0 -11 13 -15 55 -15 54 0 55 0 55 30 0 28 -2 30 -40 30
-23 0 -40 5 -40 11 0 8 14 10 40 6 30 -4 40 -2 40 9 0 20 -98 20 -106 -1z"/>
<path d="M997 294 c-4 -4 -7 -27 -7 -51 l0 -43 55 0 c48 0 55 2 55 20 0 11 -7
20 -15 20 -8 0 -15 -4 -15 -10 0 -5 -11 -10 -25 -10 -21 0 -25 5 -25 30 0 25
4 30 25 30 14 0 25 -4 25 -10 0 -5 7 -10 16 -10 9 0 14 7 12 18 -2 13 -15 18
-48 20 -25 2 -49 0 -53 -4z"/>
<path d="M1130 250 c0 -38 4 -50 15 -50 11 0 15 12 15 50 0 38 -4 50 -15 50
-11 0 -15 -12 -15 -50z"/>
<path d="M1207 293 c-4 -3 -7 -26 -7 -50 l0 -43 60 0 60 0 0 50 0 50 -53 0
c-30 0 -57 -3 -60 -7z m91 -45 c3 -26 1 -28 -32 -28 -33 0 -36 2 -36 31 0 28
2 30 33 27 27 -2 33 -8 35 -30z"/>
<path d="M1362 253 l3 -48 55 0 55 0 3 48 c2 37 0 47 -12 47 -12 0 -16 -10
-16 -40 0 -38 -2 -40 -30 -40 -28 0 -30 2 -30 40 0 30 -4 40 -16 40 -12 0 -14
-10 -12 -47z"/>
<path d="M1527 294 c-4 -4 -7 -18 -7 -31 0 -20 5 -23 40 -23 23 0 40 -5 40
-11 0 -8 -15 -10 -46 -5 -34 4 -45 3 -41 -7 2 -7 24 -12 58 -12 51 0 54 1 54
25 0 22 -5 25 -42 28 -24 2 -43 8 -43 14 0 7 16 9 46 4 34 -4 45 -3 42 7 -5
13 -89 22 -101 11z"/>
<path d="M1942 250 l0 -50 54 0 c30 0 54 5 54 10 0 6 -18 10 -40 10 -22 0 -40
5 -40 10 0 6 11 10 25 10 14 0 25 5 25 10 0 6 -11 10 -25 10 -14 0 -25 5 -25
11 0 8 14 10 40 6 30 -4 40 -2 40 9 0 10 -14 14 -54 14 l-54 0 0 -50z"/>
<path d="M2082 253 l3 -48 55 0 55 0 3 48 c2 37 0 47 -12 47 -12 0 -16 -10
-16 -40 0 -38 -2 -40 -30 -40 -28 0 -30 2 -30 40 0 30 -4 40 -16 40 -12 0 -14
-10 -12 -47z"/>
<path d="M2238 250 c-2 -42 0 -50 14 -50 11 0 15 5 12 14 -9 23 12 27 31 6 10
-11 29 -20 43 -20 l24 0 -23 20 c-21 17 -22 19 -6 20 14 0 18 7 15 28 -3 25
-7 27 -55 30 l-51 3 -4 -51z m82 14 c0 -11 -8 -14 -27 -12 -39 4 -42 28 -4 28
21 0 31 -5 31 -16z"/>
<path d="M2387 293 c-4 -3 -7 -26 -7 -50 l0 -43 60 0 60 0 0 50 0 50 -53 0
c-30 0 -57 -3 -60 -7z m91 -45 c3 -26 1 -28 -32 -28 -33 0 -36 2 -36 31 0 28
2 30 33 27 27 -2 33 -8 35 -30z"/>
<path d="M2540 250 c0 -38 4 -50 15 -50 9 0 15 9 15 25 0 14 4 25 8 25 5 0 19
-11 32 -25 37 -39 50 -32 50 25 0 37 -4 50 -15 50 -11 0 -13 -8 -8 -32 l6 -32
-31 23 c-17 12 -34 26 -37 31 -4 6 -13 10 -21 10 -10 0 -14 -13 -14 -50z"/>
</g>
</svg>
